<svg width="122" height="27" viewBox="0 0 122 27" fill="none" xmlns="http://www.w3.org/2000/svg">
<path d="M7.7 13.725C6.941 13.725 6.325 14.341 6.325 15.1C6.325 15.859 6.941 16.475 7.7 16.475C8.459 16.475 9.075 15.859 9.075 15.1C9.075 14.341 8.459 13.725 7.7 13.725ZM14.3 13.725C13.541 13.725 12.925 14.341 12.925 15.1C12.925 15.859 13.541 16.475 14.3 16.475C15.059 16.475 15.675 15.859 15.675 15.1C15.675 14.341 15.059 13.725 14.3 13.725ZM11 3C4.928 3 0 7.928 0 14C0 20.072 4.928 25 11 25C17.072 25 22 20.072 22 14C22 7.928 17.072 3 11 3ZM11 22.8C6.149 22.8 2.2 18.851 2.2 14C2.2 13.681 2.222 13.362 2.255 13.054C4.851 11.899 6.908 9.776 7.986 7.147C9.977 9.963 13.255 11.8 16.962 11.8C17.82 11.8 18.645 11.701 19.437 11.514C19.668 12.295 19.8 13.131 19.8 14C19.8 18.851 15.851 22.8 11 22.8Z" fill="black"/>
<path d="M42.946 17.606H37.942L37.114 20H34.468L38.986 7.418H41.92L46.438 20H43.774L42.946 17.606ZM42.262 15.59L40.444 10.334L38.626 15.59H42.262ZM50.6468 11.486C50.9708 11.006 51.4148 10.616 51.9788 10.316C52.5548 10.016 53.2088 9.866 53.9408 9.866C54.7928 9.866 55.5608 10.076 56.2448 10.496C56.9408 10.916 57.4868 11.516 57.8828 12.296C58.2908 13.064 58.4948 13.958 58.4948 14.978C58.4948 15.998 58.2908 16.904 57.8828 17.696C57.4868 18.476 56.9408 19.082 56.2448 19.514C55.5608 19.946 54.7928 20.162 53.9408 20.162C53.1968 20.162 52.5428 20.018 51.9788 19.73C51.4268 19.43 50.9828 19.046 50.6468 18.578V20H48.1268V6.68H50.6468V11.486ZM55.9208 14.978C55.9208 14.378 55.7948 13.862 55.5428 13.43C55.3028 12.986 54.9788 12.65 54.5708 12.422C54.1748 12.194 53.7428 12.08 53.2748 12.08C52.8188 12.08 52.3868 12.2 51.9788 12.44C51.5828 12.668 51.2588 13.004 51.0068 13.448C50.7668 13.892 50.6468 14.414 50.6468 15.014C50.6468 15.614 50.7668 16.136 51.0068 16.58C51.2588 17.024 51.5828 17.366 51.9788 17.606C52.3868 17.834 52.8188 17.948 53.2748 17.948C53.7428 17.948 54.1748 17.828 54.5708 17.588C54.9788 17.348 55.3028 17.006 55.5428 16.562C55.7948 16.118 55.9208 15.59 55.9208 14.978ZM64.754 20.162C63.794 20.162 62.93 19.952 62.162 19.532C61.394 19.1 60.788 18.494 60.344 17.714C59.912 16.934 59.696 16.034 59.696 15.014C59.696 13.994 59.918 13.094 60.362 12.314C60.818 11.534 61.436 10.934 62.216 10.514C62.996 10.082 63.866 9.866 64.826 9.866C65.786 9.866 66.656 10.082 67.436 10.514C68.216 10.934 68.828 11.534 69.272 12.314C69.728 13.094 69.956 13.994 69.956 15.014C69.956 16.034 69.722 16.934 69.254 17.714C68.798 18.494 68.174 19.1 67.382 19.532C66.602 19.952 65.726 20.162 64.754 20.162ZM64.754 17.966C65.21 17.966 65.636 17.858 66.032 17.642C66.44 17.414 66.764 17.078 67.004 16.634C67.244 16.19 67.364 15.65 67.364 15.014C67.364 14.066 67.112 13.34 66.608 12.836C66.116 12.32 65.51 12.062 64.79 12.062C64.07 12.062 63.464 12.32 62.972 12.836C62.492 13.34 62.252 14.066 62.252 15.014C62.252 15.962 62.486 16.694 62.954 17.21C63.434 17.714 64.034 17.966 64.754 17.966ZM81.2185 10.028V20H78.6805V18.74C78.3565 19.172 77.9305 19.514 77.4025 19.766C76.8865 20.006 76.3225 20.126 75.7105 20.126C74.9305 20.126 74.2405 19.964 73.6405 19.64C73.0405 19.304 72.5665 18.818 72.2185 18.182C71.8825 17.534 71.7145 16.766 71.7145 15.878V10.028H74.2345V15.518C74.2345 16.31 74.4325 16.922 74.8285 17.354C75.2245 17.774 75.7645 17.984 76.4485 17.984C77.1445 17.984 77.6905 17.774 78.0865 17.354C78.4825 16.922 78.6805 16.31 78.6805 15.518V10.028H81.2185ZM86.6389 12.098V16.922C86.6389 17.258 86.7169 17.504 86.8729 17.66C87.0409 17.804 87.3169 17.876 87.7009 17.876H88.8709V20H87.2869C85.1629 20 84.1009 18.968 84.1009 16.904V12.098H82.9129V10.028H84.1009V7.562H86.6389V10.028H88.8709V12.098H86.6389ZM108.67 7.436V20H106.15V11.828L102.784 20H100.876L97.4925 11.828V20H94.9725V7.436H97.8345L101.83 16.778L105.826 7.436H108.67ZM120.432 14.798C120.432 15.158 120.408 15.482 120.36 15.77H113.07C113.13 16.49 113.382 17.054 113.826 17.462C114.27 17.87 114.816 18.074 115.464 18.074C116.4 18.074 117.066 17.672 117.462 16.868H120.18C119.892 17.828 119.34 18.62 118.524 19.244C117.708 19.856 116.706 20.162 115.518 20.162C114.558 20.162 113.694 19.952 112.926 19.532C112.17 19.1 111.576 18.494 111.144 17.714C110.724 16.934 110.514 16.034 110.514 15.014C110.514 13.982 110.724 13.076 111.144 12.296C111.564 11.516 112.152 10.916 112.908 10.496C113.664 10.076 114.534 9.866 115.518 9.866C116.466 9.866 117.312 10.07 118.056 10.478C118.812 10.886 119.394 11.468 119.802 12.224C120.222 12.968 120.432 13.826 120.432 14.798ZM117.822 14.078C117.81 13.43 117.576 12.914 117.12 12.53C116.664 12.134 116.106 11.936 115.446 11.936C114.822 11.936 114.294 12.128 113.862 12.512C113.442 12.884 113.184 13.406 113.088 14.078H117.822Z" fill="black"/>
</svg>
