<svg width="75" height="27" viewBox="0 0 75 27" fill="none" xmlns="http://www.w3.org/2000/svg">
<path d="M16.5 7C14.55 7 12.45 7.4 11 8.5C9.55 7.4 7.45 7 5.5 7C4.05 7 2.51 7.22 1.22 7.79C0.49 8.12 0 8.83 0 9.64V20.92C0 22.22 1.22 23.18 2.48 22.86C3.46 22.61 4.5 22.5 5.5 22.5C7.06 22.5 8.72 22.76 10.06 23.42C10.66 23.72 11.34 23.72 11.93 23.42C13.27 22.75 14.93 22.5 16.49 22.5C17.49 22.5 18.53 22.61 19.51 22.86C20.77 23.19 21.99 22.23 21.99 20.92V9.64C21.99 8.83 21.5 8.12 20.77 7.79C19.49 7.22 17.95 7 16.5 7V7ZM20 19.73C20 20.36 19.42 20.82 18.8 20.71C18.05 20.57 17.27 20.51 16.5 20.51C14.8 20.51 12.35 21.16 11 22.01V10.5C12.35 9.65 14.8 9 16.5 9C17.42 9 18.33 9.09 19.2 9.28C19.66 9.38 20 9.79 20 10.26V19.73Z" fill="black"/>
<path d="M42.37 13.556C43.078 13.688 43.66 14.042 44.116 14.618C44.572 15.194 44.8 15.854 44.8 16.598C44.8 17.27 44.632 17.864 44.296 18.38C43.972 18.884 43.498 19.28 42.874 19.568C42.25 19.856 41.512 20 40.66 20H35.242V7.436H40.426C41.278 7.436 42.01 7.574 42.622 7.85C43.246 8.126 43.714 8.51 44.026 9.002C44.35 9.494 44.512 10.052 44.512 10.676C44.512 11.408 44.314 12.02 43.918 12.512C43.534 13.004 43.018 13.352 42.37 13.556ZM37.762 12.62H40.066C40.666 12.62 41.128 12.488 41.452 12.224C41.776 11.948 41.938 11.558 41.938 11.054C41.938 10.55 41.776 10.16 41.452 9.884C41.128 9.608 40.666 9.47 40.066 9.47H37.762V12.62ZM40.3 17.948C40.912 17.948 41.386 17.804 41.722 17.516C42.07 17.228 42.244 16.82 42.244 16.292C42.244 15.752 42.064 15.332 41.704 15.032C41.344 14.72 40.858 14.564 40.246 14.564H37.762V17.948H40.3ZM49.3284 6.68V20H46.8084V6.68H49.3284ZM56.2462 20.162C55.2862 20.162 54.4222 19.952 53.6542 19.532C52.8862 19.1 52.2802 18.494 51.8362 17.714C51.4042 16.934 51.1882 16.034 51.1882 15.014C51.1882 13.994 51.4102 13.094 51.8542 12.314C52.3102 11.534 52.9282 10.934 53.7082 10.514C54.4882 10.082 55.3582 9.866 56.3182 9.866C57.2782 9.866 58.1482 10.082 58.9282 10.514C59.7082 10.934 60.3202 11.534 60.7642 12.314C61.2202 13.094 61.4482 13.994 61.4482 15.014C61.4482 16.034 61.2142 16.934 60.7462 17.714C60.2902 18.494 59.6662 19.1 58.8742 19.532C58.0942 19.952 57.2182 20.162 56.2462 20.162ZM56.2462 17.966C56.7022 17.966 57.1282 17.858 57.5242 17.642C57.9322 17.414 58.2562 17.078 58.4962 16.634C58.7362 16.19 58.8562 15.65 58.8562 15.014C58.8562 14.066 58.6042 13.34 58.1002 12.836C57.6082 12.32 57.0022 12.062 56.2822 12.062C55.5622 12.062 54.9562 12.32 54.4642 12.836C53.9842 13.34 53.7442 14.066 53.7442 15.014C53.7442 15.962 53.9782 16.694 54.4462 17.21C54.9262 17.714 55.5262 17.966 56.2462 17.966ZM67.2027 9.866C67.9467 9.866 68.6007 10.016 69.1647 10.316C69.7287 10.604 70.1727 10.982 70.4967 11.45V10.028H73.0347V20.072C73.0347 20.996 72.8487 21.818 72.4767 22.538C72.1047 23.27 71.5467 23.846 70.8027 24.266C70.0587 24.698 69.1587 24.914 68.1027 24.914C66.6867 24.914 65.5227 24.584 64.6107 23.924C63.7107 23.264 63.2007 22.364 63.0807 21.224H65.5827C65.7147 21.68 65.9967 22.04 66.4287 22.304C66.8727 22.58 67.4067 22.718 68.0307 22.718C68.7627 22.718 69.3567 22.496 69.8127 22.052C70.2687 21.62 70.4967 20.96 70.4967 20.072V18.524C70.1727 18.992 69.7227 19.382 69.1467 19.694C68.5827 20.006 67.9347 20.162 67.2027 20.162C66.3627 20.162 65.5947 19.946 64.8987 19.514C64.2027 19.082 63.6507 18.476 63.2427 17.696C62.8467 16.904 62.6487 15.998 62.6487 14.978C62.6487 13.97 62.8467 13.076 63.2427 12.296C63.6507 11.516 64.1967 10.916 64.8807 10.496C65.5767 10.076 66.3507 9.866 67.2027 9.866ZM70.4967 15.014C70.4967 14.402 70.3767 13.88 70.1367 13.448C69.8967 13.004 69.5727 12.668 69.1647 12.44C68.7567 12.2 68.3187 12.08 67.8507 12.08C67.3827 12.08 66.9507 12.194 66.5547 12.422C66.1587 12.65 65.8347 12.986 65.5827 13.43C65.3427 13.862 65.2227 14.378 65.2227 14.978C65.2227 15.578 65.3427 16.106 65.5827 16.562C65.8347 17.006 66.1587 17.348 66.5547 17.588C66.9627 17.828 67.3947 17.948 67.8507 17.948C68.3187 17.948 68.7567 17.834 69.1647 17.606C69.5727 17.366 69.8967 17.03 70.1367 16.598C70.3767 16.154 70.4967 15.626 70.4967 15.014Z" fill="black"/>
</svg>
