<svg width="108" height="27" viewBox="0 0 108 27" fill="none" xmlns="http://www.w3.org/2000/svg">
<path d="M18 6H2C0.9 6 0.00999999 6.9 0.00999999 8L0 20C0 21.1 0.9 22 2 22H18C19.1 22 20 21.1 20 20V8C20 6.9 19.1 6 18 6ZM17.6 10.25L10.53 14.67C10.21 14.87 9.79 14.87 9.47 14.67L2.4 10.25C2.15 10.09 2 9.82 2 9.53C2 8.86 2.73 8.46 3.3 8.81L10 13L16.7 8.81C17.27 8.46 18 8.86 18 9.53C18 9.82 17.85 10.09 17.6 10.25Z" fill="black"/>
<path d="M33.63 13.7C33.63 12.464 33.906 11.36 34.458 10.388C35.022 9.404 35.784 8.642 36.744 8.102C37.716 7.55 38.802 7.274 40.002 7.274C41.406 7.274 42.636 7.634 43.692 8.354C44.748 9.074 45.486 10.07 45.906 11.342H43.008C42.72 10.742 42.312 10.292 41.784 9.992C41.268 9.692 40.668 9.542 39.984 9.542C39.252 9.542 38.598 9.716 38.022 10.064C37.458 10.4 37.014 10.88 36.69 11.504C36.378 12.128 36.222 12.86 36.222 13.7C36.222 14.528 36.378 15.26 36.69 15.896C37.014 16.52 37.458 17.006 38.022 17.354C38.598 17.69 39.252 17.858 39.984 17.858C40.668 17.858 41.268 17.708 41.784 17.408C42.312 17.096 42.72 16.64 43.008 16.04H45.906C45.486 17.324 44.748 18.326 43.692 19.046C42.648 19.754 41.418 20.108 40.002 20.108C38.802 20.108 37.716 19.838 36.744 19.298C35.784 18.746 35.022 17.984 34.458 17.012C33.906 16.04 33.63 14.936 33.63 13.7ZM52.4864 20.162C51.5264 20.162 50.6624 19.952 49.8944 19.532C49.1264 19.1 48.5204 18.494 48.0764 17.714C47.6444 16.934 47.4284 16.034 47.4284 15.014C47.4284 13.994 47.6504 13.094 48.0944 12.314C48.5504 11.534 49.1684 10.934 49.9484 10.514C50.7284 10.082 51.5984 9.866 52.5584 9.866C53.5184 9.866 54.3884 10.082 55.1684 10.514C55.9484 10.934 56.5604 11.534 57.0044 12.314C57.4604 13.094 57.6884 13.994 57.6884 15.014C57.6884 16.034 57.4544 16.934 56.9864 17.714C56.5304 18.494 55.9064 19.1 55.1144 19.532C54.3344 19.952 53.4584 20.162 52.4864 20.162ZM52.4864 17.966C52.9424 17.966 53.3684 17.858 53.7644 17.642C54.1724 17.414 54.4964 17.078 54.7364 16.634C54.9764 16.19 55.0964 15.65 55.0964 15.014C55.0964 14.066 54.8444 13.34 54.3404 12.836C53.8484 12.32 53.2424 12.062 52.5224 12.062C51.8024 12.062 51.1964 12.32 50.7044 12.836C50.2244 13.34 49.9844 14.066 49.9844 15.014C49.9844 15.962 50.2184 16.694 50.6864 17.21C51.1664 17.714 51.7664 17.966 52.4864 17.966ZM65.0629 9.884C66.2509 9.884 67.2109 10.262 67.9429 11.018C68.6749 11.762 69.0409 12.806 69.0409 14.15V20H66.5209V14.492C66.5209 13.7 66.3229 13.094 65.9269 12.674C65.5309 12.242 64.9909 12.026 64.3069 12.026C63.6109 12.026 63.0589 12.242 62.6509 12.674C62.2549 13.094 62.0569 13.7 62.0569 14.492V20H59.5369V10.028H62.0569V11.27C62.3929 10.838 62.8189 10.502 63.3349 10.262C63.8629 10.01 64.4389 9.884 65.0629 9.884ZM74.3713 12.098V16.922C74.3713 17.258 74.4493 17.504 74.6053 17.66C74.7733 17.804 75.0493 17.876 75.4333 17.876H76.6033V20H75.0193C72.8953 20 71.8333 18.968 71.8333 16.904V12.098H70.6453V10.028H71.8333V7.562H74.3713V10.028H76.6033V12.098H74.3713ZM77.7678 14.978C77.7678 13.97 77.9658 13.076 78.3618 12.296C78.7698 11.516 79.3158 10.916 79.9998 10.496C80.6958 10.076 81.4698 9.866 82.3218 9.866C83.0658 9.866 83.7138 10.016 84.2658 10.316C84.8298 10.616 85.2798 10.994 85.6158 11.45V10.028H88.1538V20H85.6158V18.542C85.2918 19.01 84.8418 19.4 84.2658 19.712C83.7018 20.012 83.0478 20.162 82.3038 20.162C81.4638 20.162 80.6958 19.946 79.9998 19.514C79.3158 19.082 78.7698 18.476 78.3618 17.696C77.9658 16.904 77.7678 15.998 77.7678 14.978ZM85.6158 15.014C85.6158 14.402 85.4958 13.88 85.2558 13.448C85.0158 13.004 84.6918 12.668 84.2838 12.44C83.8758 12.2 83.4378 12.08 82.9698 12.08C82.5018 12.08 82.0698 12.194 81.6738 12.422C81.2778 12.65 80.9538 12.986 80.7018 13.43C80.4618 13.862 80.3418 14.378 80.3418 14.978C80.3418 15.578 80.4618 16.106 80.7018 16.562C80.9538 17.006 81.2778 17.348 81.6738 17.588C82.0818 17.828 82.5138 17.948 82.9698 17.948C83.4378 17.948 83.8758 17.834 84.2838 17.606C84.6918 17.366 85.0158 17.03 85.2558 16.598C85.4958 16.154 85.6158 15.626 85.6158 15.014ZM89.967 15.014C89.967 13.982 90.177 13.082 90.597 12.314C91.017 11.534 91.599 10.934 92.343 10.514C93.087 10.082 93.939 9.866 94.899 9.866C96.135 9.866 97.155 10.178 97.959 10.802C98.775 11.414 99.321 12.278 99.597 13.394H96.879C96.735 12.962 96.489 12.626 96.141 12.386C95.805 12.134 95.385 12.008 94.881 12.008C94.161 12.008 93.591 12.272 93.171 12.8C92.751 13.316 92.541 14.054 92.541 15.014C92.541 15.962 92.751 16.7 93.171 17.228C93.591 17.744 94.161 18.002 94.881 18.002C95.901 18.002 96.567 17.546 96.879 16.634H99.597C99.321 17.714 98.775 18.572 97.959 19.208C97.143 19.844 96.123 20.162 94.899 20.162C93.939 20.162 93.087 19.952 92.343 19.532C91.599 19.1 91.017 18.5 90.597 17.732C90.177 16.952 89.967 16.046 89.967 15.014ZM104.377 12.098V16.922C104.377 17.258 104.455 17.504 104.611 17.66C104.779 17.804 105.055 17.876 105.439 17.876H106.609V20H105.025C102.901 20 101.839 18.968 101.839 16.904V12.098H100.651V10.028H101.839V7.562H104.377V10.028H106.609V12.098H104.377Z" fill="black"/>
</svg>
