<svg width="97" height="29" viewBox="0 0 97 29" fill="none" xmlns="http://www.w3.org/2000/svg">
<path d="M40.664 9.436V22H38.144V16.654H32.762V22H30.242V9.436H32.762V14.602H38.144V9.436H40.664ZM44.4223 10.84C43.9783 10.84 43.6063 10.702 43.3063 10.426C43.0183 10.138 42.8743 9.784 42.8743 9.364C42.8743 8.944 43.0183 8.596 43.3063 8.32C43.6063 8.032 43.9783 7.888 44.4223 7.888C44.8663 7.888 45.2323 8.032 45.5203 8.32C45.8203 8.596 45.9703 8.944 45.9703 9.364C45.9703 9.784 45.8203 10.138 45.5203 10.426C45.2323 10.702 44.8663 10.84 44.4223 10.84ZM45.6643 12.028V22H43.1443V12.028H45.6643ZM50.6741 13.576C50.9981 13.048 51.4181 12.634 51.9341 12.334C52.4621 12.034 53.0621 11.884 53.7341 11.884V14.53H53.0681C52.2761 14.53 51.6761 14.716 51.2681 15.088C50.8721 15.46 50.6741 16.108 50.6741 17.032V22H48.1541V12.028H50.6741V13.576ZM64.7015 16.798C64.7015 17.158 64.6775 17.482 64.6295 17.77H57.3395C57.3995 18.49 57.6515 19.054 58.0955 19.462C58.5395 19.87 59.0855 20.074 59.7335 20.074C60.6695 20.074 61.3355 19.672 61.7315 18.868H64.4495C64.1615 19.828 63.6095 20.62 62.7935 21.244C61.9775 21.856 60.9755 22.162 59.7875 22.162C58.8275 22.162 57.9635 21.952 57.1955 21.532C56.4395 21.1 55.8455 20.494 55.4135 19.714C54.9935 18.934 54.7835 18.034 54.7835 17.014C54.7835 15.982 54.9935 15.076 55.4135 14.296C55.8335 13.516 56.4215 12.916 57.1775 12.496C57.9335 12.076 58.8035 11.866 59.7875 11.866C60.7355 11.866 61.5815 12.07 62.3255 12.478C63.0815 12.886 63.6635 13.468 64.0715 14.224C64.4915 14.968 64.7015 15.826 64.7015 16.798ZM62.0915 16.078C62.0795 15.43 61.8455 14.914 61.3895 14.53C60.9335 14.134 60.3755 13.936 59.7155 13.936C59.0915 13.936 58.5635 14.128 58.1315 14.512C57.7115 14.884 57.4535 15.406 57.3575 16.078H62.0915ZM84.5279 9.436V22H82.0079V13.828L78.6419 22H76.7339L73.3499 13.828V22H70.8299V9.436H73.6919L77.6879 18.778L81.6839 9.436H84.5279ZM96.2893 16.798C96.2893 17.158 96.2653 17.482 96.2173 17.77H88.9273C88.9873 18.49 89.2393 19.054 89.6833 19.462C90.1273 19.87 90.6733 20.074 91.3213 20.074C92.2573 20.074 92.9233 19.672 93.3193 18.868H96.0373C95.7493 19.828 95.1973 20.62 94.3813 21.244C93.5653 21.856 92.5633 22.162 91.3753 22.162C90.4153 22.162 89.5513 21.952 88.7833 21.532C88.0273 21.1 87.4333 20.494 87.0013 19.714C86.5813 18.934 86.3713 18.034 86.3713 17.014C86.3713 15.982 86.5813 15.076 87.0013 14.296C87.4213 13.516 88.0093 12.916 88.7653 12.496C89.5213 12.076 90.3913 11.866 91.3753 11.866C92.3233 11.866 93.1693 12.07 93.9133 12.478C94.6693 12.886 95.2513 13.468 95.6593 14.224C96.0793 14.968 96.2893 15.826 96.2893 16.798ZM93.6793 16.078C93.6673 15.43 93.4333 14.914 92.9773 14.53C92.5213 14.134 91.9633 13.936 91.3033 13.936C90.6793 13.936 90.1513 14.128 89.7193 14.512C89.2993 14.884 89.0413 15.406 88.9453 16.078H93.6793Z" fill="white"/>
<path d="M11.9704 26.2251L20.3512 6.72439L0.00684258 12.7761L4.65248 18.0124L16.2456 10.3765L7.31103 21.001L11.9704 26.2251Z" fill="white"/>
</svg>
