<svg width="111" height="27" viewBox="0 0 111 27" fill="none" xmlns="http://www.w3.org/2000/svg">
<path d="M23 20H22V7C22 5.9 21.1 5 20 5H4C2.9 5 2 5.9 2 7V20H1C0.45 20 0 20.45 0 21C0 21.55 0.45 22 1 22H23C23.55 22 24 21.55 24 21C24 20.45 23.55 20 23 20ZM13.5 20H10.5C10.22 20 10 19.78 10 19.5C10 19.22 10.22 19 10.5 19H13.5C13.78 19 14 19.22 14 19.5C14 19.78 13.78 20 13.5 20ZM20 17H4V8C4 7.45 4.45 7 5 7H19C19.55 7 20 7.45 20 8V17Z" fill="black"/>
<path d="M45.404 11.324C45.404 11.996 45.242 12.626 44.918 13.214C44.606 13.802 44.108 14.276 43.424 14.636C42.752 14.996 41.9 15.176 40.868 15.176H38.762V20H36.242V7.436H40.868C41.84 7.436 42.668 7.604 43.352 7.94C44.036 8.276 44.546 8.738 44.882 9.326C45.23 9.914 45.404 10.58 45.404 11.324ZM40.76 13.142C41.456 13.142 41.972 12.986 42.308 12.674C42.644 12.35 42.812 11.9 42.812 11.324C42.812 10.1 42.128 9.488 40.76 9.488H38.762V13.142H40.76ZM51.6212 20.162C50.6612 20.162 49.7972 19.952 49.0292 19.532C48.2612 19.1 47.6552 18.494 47.2112 17.714C46.7792 16.934 46.5632 16.034 46.5632 15.014C46.5632 13.994 46.7852 13.094 47.2292 12.314C47.6852 11.534 48.3032 10.934 49.0832 10.514C49.8632 10.082 50.7332 9.866 51.6932 9.866C52.6532 9.866 53.5232 10.082 54.3032 10.514C55.0832 10.934 55.6952 11.534 56.1392 12.314C56.5952 13.094 56.8232 13.994 56.8232 15.014C56.8232 16.034 56.5892 16.934 56.1212 17.714C55.6652 18.494 55.0412 19.1 54.2492 19.532C53.4692 19.952 52.5932 20.162 51.6212 20.162ZM51.6212 17.966C52.0772 17.966 52.5032 17.858 52.8992 17.642C53.3072 17.414 53.6312 17.078 53.8712 16.634C54.1112 16.19 54.2312 15.65 54.2312 15.014C54.2312 14.066 53.9792 13.34 53.4752 12.836C52.9832 12.32 52.3772 12.062 51.6572 12.062C50.9372 12.062 50.3312 12.32 49.8392 12.836C49.3592 13.34 49.1192 14.066 49.1192 15.014C49.1192 15.962 49.3532 16.694 49.8212 17.21C50.3012 17.714 50.9012 17.966 51.6212 17.966ZM61.1917 11.576C61.5157 11.048 61.9357 10.634 62.4517 10.334C62.9797 10.034 63.5797 9.884 64.2517 9.884V12.53H63.5857C62.7937 12.53 62.1937 12.716 61.7857 13.088C61.3897 13.46 61.1917 14.108 61.1917 15.032V20H58.6717V10.028H61.1917V11.576ZM68.883 12.098V16.922C68.883 17.258 68.961 17.504 69.117 17.66C69.285 17.804 69.561 17.876 69.945 17.876H71.115V20H69.531C67.407 20 66.345 18.968 66.345 16.904V12.098H65.157V10.028H66.345V7.562H68.883V10.028H71.115V12.098H68.883ZM77.4995 12.098H75.7535V20H73.1975V12.098H72.0635V10.028H73.1975V9.524C73.1975 8.3 73.5455 7.4 74.2415 6.824C74.9375 6.248 75.9875 5.978 77.3915 6.014V8.138C76.7795 8.126 76.3535 8.228 76.1135 8.444C75.8735 8.66 75.7535 9.05 75.7535 9.614V10.028H77.4995V12.098ZM83.5606 20.162C82.6006 20.162 81.7366 19.952 80.9686 19.532C80.2006 19.1 79.5946 18.494 79.1506 17.714C78.7186 16.934 78.5026 16.034 78.5026 15.014C78.5026 13.994 78.7246 13.094 79.1686 12.314C79.6246 11.534 80.2426 10.934 81.0226 10.514C81.8026 10.082 82.6726 9.866 83.6326 9.866C84.5926 9.866 85.4626 10.082 86.2426 10.514C87.0226 10.934 87.6346 11.534 88.0786 12.314C88.5346 13.094 88.7626 13.994 88.7626 15.014C88.7626 16.034 88.5286 16.934 88.0606 17.714C87.6046 18.494 86.9806 19.1 86.1886 19.532C85.4086 19.952 84.5326 20.162 83.5606 20.162ZM83.5606 17.966C84.0166 17.966 84.4426 17.858 84.8386 17.642C85.2466 17.414 85.5706 17.078 85.8106 16.634C86.0506 16.19 86.1706 15.65 86.1706 15.014C86.1706 14.066 85.9186 13.34 85.4146 12.836C84.9226 12.32 84.3166 12.062 83.5966 12.062C82.8766 12.062 82.2706 12.32 81.7786 12.836C81.2986 13.34 81.0586 14.066 81.0586 15.014C81.0586 15.962 81.2926 16.694 81.7606 17.21C82.2406 17.714 82.8406 17.966 83.5606 17.966ZM93.1311 6.68V20H90.6111V6.68H93.1311ZM96.8989 8.84C96.4549 8.84 96.0829 8.702 95.7829 8.426C95.4949 8.138 95.3509 7.784 95.3509 7.364C95.3509 6.944 95.4949 6.596 95.7829 6.32C96.0829 6.032 96.4549 5.888 96.8989 5.888C97.3429 5.888 97.7089 6.032 97.9969 6.32C98.2969 6.596 98.4469 6.944 98.4469 7.364C98.4469 7.784 98.2969 8.138 97.9969 8.426C97.7089 8.702 97.3429 8.84 96.8989 8.84ZM98.1409 10.028V20H95.6209V10.028H98.1409ZM105.059 20.162C104.099 20.162 103.235 19.952 102.467 19.532C101.699 19.1 101.093 18.494 100.649 17.714C100.217 16.934 100.001 16.034 100.001 15.014C100.001 13.994 100.223 13.094 100.667 12.314C101.123 11.534 101.741 10.934 102.521 10.514C103.301 10.082 104.171 9.866 105.131 9.866C106.091 9.866 106.961 10.082 107.741 10.514C108.521 10.934 109.133 11.534 109.577 12.314C110.033 13.094 110.261 13.994 110.261 15.014C110.261 16.034 110.027 16.934 109.559 17.714C109.103 18.494 108.479 19.1 107.687 19.532C106.907 19.952 106.031 20.162 105.059 20.162ZM105.059 17.966C105.515 17.966 105.941 17.858 106.337 17.642C106.745 17.414 107.069 17.078 107.309 16.634C107.549 16.19 107.669 15.65 107.669 15.014C107.669 14.066 107.417 13.34 106.913 12.836C106.421 12.32 105.815 12.062 105.095 12.062C104.375 12.062 103.769 12.32 103.277 12.836C102.797 13.34 102.557 14.066 102.557 15.014C102.557 15.962 102.791 16.694 103.259 17.21C103.739 17.714 104.339 17.966 105.059 17.966Z" fill="black"/>
</svg>
