<svg width="110" height="27" viewBox="0 0 110 27" fill="none" xmlns="http://www.w3.org/2000/svg">
<path d="M19 5H5C3.9 5 3 5.9 3 7V21C3 22.1 3.9 23 5 23H19C20.1 23 21 22.1 21 21V7C21 5.9 20.1 5 19 5ZM13 19H8C7.45 19 7 18.55 7 18C7 17.45 7.45 17 8 17H13C13.55 17 14 17.45 14 18C14 18.55 13.55 19 13 19ZM16 15H8C7.45 15 7 14.55 7 14C7 13.45 7.45 13 8 13H16C16.55 13 17 13.45 17 14C17 14.55 16.55 15 16 15ZM16 11H8C7.45 11 7 10.55 7 10C7 9.45 7.45 9 8 9H16C16.55 9 17 9.45 17 10C17 10.55 16.55 11 16 11Z" fill="black"/>
<path d="M42.722 20L39.95 15.104H38.762V20H36.242V7.436H40.958C41.93 7.436 42.758 7.61 43.442 7.958C44.126 8.294 44.636 8.756 44.972 9.344C45.32 9.92 45.494 10.568 45.494 11.288C45.494 12.116 45.254 12.866 44.774 13.538C44.294 14.198 43.58 14.654 42.632 14.906L45.638 20H42.722ZM38.762 13.214H40.868C41.552 13.214 42.062 13.052 42.398 12.728C42.734 12.392 42.902 11.93 42.902 11.342C42.902 10.766 42.734 10.322 42.398 10.01C42.062 9.686 41.552 9.524 40.868 9.524H38.762V13.214ZM57.0433 14.798C57.0433 15.158 57.0193 15.482 56.9713 15.77H49.6813C49.7413 16.49 49.9933 17.054 50.4373 17.462C50.8813 17.87 51.4273 18.074 52.0753 18.074C53.0113 18.074 53.6773 17.672 54.0733 16.868H56.7913C56.5033 17.828 55.9513 18.62 55.1353 19.244C54.3193 19.856 53.3173 20.162 52.1293 20.162C51.1693 20.162 50.3053 19.952 49.5373 19.532C48.7813 19.1 48.1873 18.494 47.7553 17.714C47.3353 16.934 47.1252 16.034 47.1252 15.014C47.1252 13.982 47.3353 13.076 47.7553 12.296C48.1753 11.516 48.7633 10.916 49.5193 10.496C50.2753 10.076 51.1453 9.866 52.1293 9.866C53.0773 9.866 53.9233 10.07 54.6673 10.478C55.4233 10.886 56.0053 11.468 56.4133 12.224C56.8333 12.968 57.0433 13.826 57.0433 14.798ZM54.4333 14.078C54.4213 13.43 54.1873 12.914 53.7313 12.53C53.2753 12.134 52.7173 11.936 52.0573 11.936C51.4333 11.936 50.9053 12.128 50.4733 12.512C50.0533 12.884 49.7953 13.406 49.6993 14.078H54.4333ZM62.6986 20.162C61.8826 20.162 61.1506 20.018 60.5026 19.73C59.8546 19.43 59.3386 19.028 58.9546 18.524C58.5826 18.02 58.3786 17.462 58.3426 16.85H60.8806C60.9286 17.234 61.1146 17.552 61.4386 17.804C61.7746 18.056 62.1886 18.182 62.6806 18.182C63.1606 18.182 63.5326 18.086 63.7966 17.894C64.0726 17.702 64.2106 17.456 64.2106 17.156C64.2106 16.832 64.0426 16.592 63.7066 16.436C63.3826 16.268 62.8606 16.088 62.1406 15.896C61.3966 15.716 60.7846 15.53 60.3046 15.338C59.8366 15.146 59.4286 14.852 59.0806 14.456C58.7446 14.06 58.5766 13.526 58.5766 12.854C58.5766 12.302 58.7326 11.798 59.0446 11.342C59.3686 10.886 59.8246 10.526 60.4126 10.262C61.0126 9.998 61.7146 9.866 62.5186 9.866C63.7066 9.866 64.6546 10.166 65.3626 10.766C66.0706 11.354 66.4606 12.152 66.5326 13.16H64.1206C64.0846 12.764 63.9166 12.452 63.6166 12.224C63.3286 11.984 62.9386 11.864 62.4466 11.864C61.9906 11.864 61.6366 11.948 61.3846 12.116C61.1446 12.284 61.0246 12.518 61.0246 12.818C61.0246 13.154 61.1926 13.412 61.5286 13.592C61.8646 13.76 62.3866 13.934 63.0946 14.114C63.8146 14.294 64.4086 14.48 64.8766 14.672C65.3446 14.864 65.7466 15.164 66.0826 15.572C66.4306 15.968 66.6106 16.496 66.6226 17.156C66.6226 17.732 66.4606 18.248 66.1366 18.704C65.8246 19.16 65.3686 19.52 64.7686 19.784C64.1806 20.036 63.4906 20.162 62.6986 20.162ZM78.1052 10.028V20H75.5672V18.74C75.2432 19.172 74.8172 19.514 74.2892 19.766C73.7732 20.006 73.2092 20.126 72.5972 20.126C71.8172 20.126 71.1272 19.964 70.5272 19.64C69.9272 19.304 69.4532 18.818 69.1052 18.182C68.7692 17.534 68.6012 16.766 68.6012 15.878V10.028H71.1212V15.518C71.1212 16.31 71.3192 16.922 71.7152 17.354C72.1112 17.774 72.6512 17.984 73.3352 17.984C74.0312 17.984 74.5772 17.774 74.9732 17.354C75.3692 16.922 75.5672 16.31 75.5672 15.518V10.028H78.1052ZM92.9756 9.884C94.1996 9.884 95.1836 10.262 95.9276 11.018C96.6836 11.762 97.0616 12.806 97.0616 14.15V20H94.5416V14.492C94.5416 13.712 94.3436 13.118 93.9476 12.71C93.5516 12.29 93.0116 12.08 92.3276 12.08C91.6436 12.08 91.0976 12.29 90.6896 12.71C90.2936 13.118 90.0956 13.712 90.0956 14.492V20H87.5756V14.492C87.5756 13.712 87.3776 13.118 86.9816 12.71C86.5856 12.29 86.0456 12.08 85.3616 12.08C84.6656 12.08 84.1136 12.29 83.7056 12.71C83.3096 13.118 83.1116 13.712 83.1116 14.492V20H80.5916V10.028H83.1116V11.234C83.4356 10.814 83.8496 10.484 84.3536 10.244C84.8696 10.004 85.4336 9.884 86.0456 9.884C86.8256 9.884 87.5216 10.052 88.1336 10.388C88.7456 10.712 89.2196 11.18 89.5556 11.792C89.8796 11.216 90.3476 10.754 90.9596 10.406C91.5836 10.058 92.2556 9.884 92.9756 9.884ZM108.723 14.798C108.723 15.158 108.699 15.482 108.651 15.77H101.361C101.421 16.49 101.673 17.054 102.117 17.462C102.561 17.87 103.107 18.074 103.755 18.074C104.691 18.074 105.357 17.672 105.753 16.868H108.471C108.183 17.828 107.631 18.62 106.815 19.244C105.999 19.856 104.997 20.162 103.809 20.162C102.849 20.162 101.985 19.952 101.217 19.532C100.461 19.1 99.8669 18.494 99.4349 17.714C99.0149 16.934 98.8049 16.034 98.8049 15.014C98.8049 13.982 99.0149 13.076 99.4349 12.296C99.8549 11.516 100.443 10.916 101.199 10.496C101.955 10.076 102.825 9.866 103.809 9.866C104.757 9.866 105.603 10.07 106.347 10.478C107.103 10.886 107.685 11.468 108.093 12.224C108.513 12.968 108.723 13.826 108.723 14.798ZM106.113 14.078C106.101 13.43 105.867 12.914 105.411 12.53C104.955 12.134 104.397 11.936 103.737 11.936C103.113 11.936 102.585 12.128 102.153 12.512C101.733 12.884 101.475 13.406 101.379 14.078H106.113Z" fill="white"/>
</svg>
