<svg width="110" height="27" viewBox="0 0 110 27" fill="none" xmlns="http://www.w3.org/2000/svg">
<path d="M18 8H14V6C14 4.89 13.11 4 12 4H8C6.89 4 6 4.89 6 6V8H2C0.89 8 0.00999999 8.89 0.00999999 10L0 21C0 22.11 0.89 23 2 23H18C19.11 23 20 22.11 20 21V10C20 8.89 19.11 8 18 8ZM12 8H8V6H12V8Z" fill="black"/>
<path d="M38.58 20.126C37.704 20.126 36.912 19.976 36.204 19.676C35.508 19.376 34.956 18.944 34.548 18.38C34.14 17.816 33.93 17.15 33.918 16.382H36.618C36.654 16.898 36.834 17.306 37.158 17.606C37.494 17.906 37.95 18.056 38.526 18.056C39.114 18.056 39.576 17.918 39.912 17.642C40.248 17.354 40.416 16.982 40.416 16.526C40.416 16.154 40.302 15.848 40.074 15.608C39.846 15.368 39.558 15.182 39.21 15.05C38.874 14.906 38.406 14.75 37.806 14.582C36.99 14.342 36.324 14.108 35.808 13.88C35.304 13.64 34.866 13.286 34.494 12.818C34.134 12.338 33.954 11.702 33.954 10.91C33.954 10.166 34.14 9.518 34.512 8.966C34.884 8.414 35.406 7.994 36.078 7.706C36.75 7.406 37.518 7.256 38.382 7.256C39.678 7.256 40.728 7.574 41.532 8.21C42.348 8.834 42.798 9.71 42.882 10.838H40.11C40.086 10.406 39.9 10.052 39.552 9.776C39.216 9.488 38.766 9.344 38.202 9.344C37.71 9.344 37.314 9.47 37.014 9.722C36.726 9.974 36.582 10.34 36.582 10.82C36.582 11.156 36.69 11.438 36.906 11.666C37.134 11.882 37.41 12.062 37.734 12.206C38.07 12.338 38.538 12.494 39.138 12.674C39.954 12.914 40.62 13.154 41.136 13.394C41.652 13.634 42.096 13.994 42.468 14.474C42.84 14.954 43.026 15.584 43.026 16.364C43.026 17.036 42.852 17.66 42.504 18.236C42.156 18.812 41.646 19.274 40.974 19.622C40.302 19.958 39.504 20.126 38.58 20.126ZM54.4808 14.798C54.4808 15.158 54.4568 15.482 54.4088 15.77H47.1188C47.1788 16.49 47.4308 17.054 47.8748 17.462C48.3188 17.87 48.8648 18.074 49.5128 18.074C50.4488 18.074 51.1148 17.672 51.5108 16.868H54.2288C53.9408 17.828 53.3888 18.62 52.5728 19.244C51.7568 19.856 50.7548 20.162 49.5668 20.162C48.6068 20.162 47.7428 19.952 46.9748 19.532C46.2188 19.1 45.6248 18.494 45.1928 17.714C44.7728 16.934 44.5627 16.034 44.5627 15.014C44.5627 13.982 44.7728 13.076 45.1928 12.296C45.6128 11.516 46.2008 10.916 46.9568 10.496C47.7128 10.076 48.5828 9.866 49.5668 9.866C50.5148 9.866 51.3608 10.07 52.1048 10.478C52.8608 10.886 53.4428 11.468 53.8508 12.224C54.2708 12.968 54.4808 13.826 54.4808 14.798ZM51.8708 14.078C51.8588 13.43 51.6248 12.914 51.1688 12.53C50.7128 12.134 50.1548 11.936 49.4948 11.936C48.8708 11.936 48.3428 12.128 47.9108 12.512C47.4908 12.884 47.2328 13.406 47.1368 14.078H51.8708ZM58.8401 11.576C59.1641 11.048 59.5841 10.634 60.1001 10.334C60.6281 10.034 61.2281 9.884 61.9001 9.884V12.53H61.2341C60.4421 12.53 59.8421 12.716 59.4341 13.088C59.0381 13.46 58.8401 14.108 58.8401 15.032V20H56.3201V10.028H58.8401V11.576ZM67.7555 17.678L70.2755 10.028H72.9575L69.2675 20H66.2075L62.5355 10.028H65.2355L67.7555 17.678ZM75.6509 8.84C75.2069 8.84 74.8349 8.702 74.5349 8.426C74.2469 8.138 74.1029 7.784 74.1029 7.364C74.1029 6.944 74.2469 6.596 74.5349 6.32C74.8349 6.032 75.2069 5.888 75.6509 5.888C76.0949 5.888 76.4609 6.032 76.7489 6.32C77.0489 6.596 77.1989 6.944 77.1989 7.364C77.1989 7.784 77.0489 8.138 76.7489 8.426C76.4609 8.702 76.0949 8.84 75.6509 8.84ZM76.8929 10.028V20H74.3729V10.028H76.8929ZM78.7346 15.014C78.7346 13.982 78.9446 13.082 79.3646 12.314C79.7846 11.534 80.3666 10.934 81.1106 10.514C81.8546 10.082 82.7066 9.866 83.6666 9.866C84.9026 9.866 85.9226 10.178 86.7266 10.802C87.5426 11.414 88.0886 12.278 88.3646 13.394H85.6466C85.5026 12.962 85.2566 12.626 84.9086 12.386C84.5726 12.134 84.1526 12.008 83.6486 12.008C82.9286 12.008 82.3586 12.272 81.9386 12.8C81.5186 13.316 81.3086 14.054 81.3086 15.014C81.3086 15.962 81.5186 16.7 81.9386 17.228C82.3586 17.744 82.9286 18.002 83.6486 18.002C84.6686 18.002 85.3346 17.546 85.6466 16.634H88.3646C88.0886 17.714 87.5426 18.572 86.7266 19.208C85.9106 19.844 84.8906 20.162 83.6666 20.162C82.7066 20.162 81.8546 19.952 81.1106 19.532C80.3666 19.1 79.7846 18.5 79.3646 17.732C78.9446 16.952 78.7346 16.046 78.7346 15.014ZM99.4808 14.798C99.4808 15.158 99.4568 15.482 99.4088 15.77H92.1188C92.1788 16.49 92.4308 17.054 92.8748 17.462C93.3188 17.87 93.8648 18.074 94.5128 18.074C95.4488 18.074 96.1148 17.672 96.5108 16.868H99.2288C98.9408 17.828 98.3888 18.62 97.5728 19.244C96.7568 19.856 95.7548 20.162 94.5668 20.162C93.6068 20.162 92.7428 19.952 91.9748 19.532C91.2188 19.1 90.6248 18.494 90.1928 17.714C89.7728 16.934 89.5627 16.034 89.5627 15.014C89.5627 13.982 89.7728 13.076 90.1928 12.296C90.6128 11.516 91.2008 10.916 91.9568 10.496C92.7128 10.076 93.5828 9.866 94.5668 9.866C95.5148 9.866 96.3608 10.07 97.1048 10.478C97.8608 10.886 98.4428 11.468 98.8508 12.224C99.2708 12.968 99.4808 13.826 99.4808 14.798ZM96.8708 14.078C96.8588 13.43 96.6248 12.914 96.1688 12.53C95.7128 12.134 95.1548 11.936 94.4948 11.936C93.8708 11.936 93.3428 12.128 92.9108 12.512C92.4908 12.884 92.2328 13.406 92.1368 14.078H96.8708ZM105.136 20.162C104.32 20.162 103.588 20.018 102.94 19.73C102.292 19.43 101.776 19.028 101.392 18.524C101.02 18.02 100.816 17.462 100.78 16.85H103.318C103.366 17.234 103.552 17.552 103.876 17.804C104.212 18.056 104.626 18.182 105.118 18.182C105.598 18.182 105.97 18.086 106.234 17.894C106.51 17.702 106.648 17.456 106.648 17.156C106.648 16.832 106.48 16.592 106.144 16.436C105.82 16.268 105.298 16.088 104.578 15.896C103.834 15.716 103.222 15.53 102.742 15.338C102.274 15.146 101.866 14.852 101.518 14.456C101.182 14.06 101.014 13.526 101.014 12.854C101.014 12.302 101.17 11.798 101.482 11.342C101.806 10.886 102.262 10.526 102.85 10.262C103.45 9.998 104.152 9.866 104.956 9.866C106.144 9.866 107.092 10.166 107.8 10.766C108.508 11.354 108.898 12.152 108.97 13.16H106.558C106.522 12.764 106.354 12.452 106.054 12.224C105.766 11.984 105.376 11.864 104.884 11.864C104.428 11.864 104.074 11.948 103.822 12.116C103.582 12.284 103.462 12.518 103.462 12.818C103.462 13.154 103.63 13.412 103.966 13.592C104.302 13.76 104.824 13.934 105.532 14.114C106.252 14.294 106.846 14.48 107.314 14.672C107.782 14.864 108.184 15.164 108.52 15.572C108.868 15.968 109.048 16.496 109.06 17.156C109.06 17.732 108.898 18.248 108.574 18.704C108.262 19.16 107.806 19.52 107.206 19.784C106.618 20.036 105.928 20.162 105.136 20.162Z" fill="black"/>
</svg>
